<svg xmlns="http://www.w3.org/2000/svg" viewBox="0 0 256 256" role="img" aria-labelledby="title desc">
  <title id="title">OpenGeoMetadata map legend logo variation: settlement and boundaries</title>
  <desc id="desc">A Bauhaus grid logo using historic map legend symbols: school flag, church and cemetery crosses, bench mark, and county boundary lines.</desc>
  <defs>
    <clipPath id="yellow-square"><rect x="32" y="32" width="80" height="80"/></clipPath>
    <clipPath id="red-circle"><circle cx="184" cy="72" r="40"/></clipPath>
    <clipPath id="blue-triangle"><path d="M72 144 32 224h80z"/></clipPath>
    <clipPath id="black-square"><rect x="144" y="144" width="80" height="80"/></clipPath>
  </defs>
  <rect width="256" height="256" fill="#fffdf3"/>
  <rect x="32" y="32" width="80" height="80" fill="#f6d94d"/>
  <circle cx="184" cy="72" r="40" fill="#d52b1e"/>
  <path d="M72 144 32 224h80z" fill="#0057b8"/>
  <rect x="144" y="144" width="80" height="80" fill="#111111"/>

  <g clip-path="url(#yellow-square)" fill="none" stroke="#111111" stroke-linecap="square" stroke-linejoin="miter">
    <rect x="50" y="74" width="28" height="24" fill="#111111" stroke="none"/>
    <path d="M82 98V50" stroke-width="6"/>
    <path d="M82 50h24l-8 12 8 12H82" fill="#fffdf3" stroke="#111111" stroke-width="5"/>
    <path d="M56 86h16" stroke="#fffdf3" stroke-width="4"/>
  </g>

  <g clip-path="url(#red-circle)" fill="none" stroke="#fffdf3" stroke-linecap="square">
    <path d="M184 43v58M165 64h38" stroke-width="8"/>
    <path d="M164 86v20M154 96h20M204 86v20M194 96h20" stroke-width="5"/>
    <circle cx="184" cy="72" r="28" stroke-width="5"/>
  </g>

  <g clip-path="url(#blue-triangle)" fill="none" stroke="#fffdf3" stroke-linecap="square" stroke-linejoin="miter">
    <path d="M72 158 48 210h48z" stroke-width="6"/>
    <path d="M72 174v24M60 186h24" stroke-width="6"/>
    <circle cx="72" cy="186" r="4" fill="#fffdf3" stroke="none"/>
    <text x="72" y="207" fill="#fffdf3" stroke="none" text-anchor="middle" font-family="Arial, Helvetica, sans-serif" font-size="13" font-weight="700">BM</text>
  </g>

  <g clip-path="url(#black-square)" fill="none" stroke="#fffdf3" stroke-linecap="square">
    <path d="M152 164h64M152 194h64" stroke-width="5" stroke-dasharray="13 8"/>
    <path d="M164 152v64M194 152v64" stroke-width="5" stroke-dasharray="8 7"/>
    <circle cx="164" cy="164" r="4" fill="#fffdf3" stroke="none"/>
    <circle cx="194" cy="194" r="4" fill="#fffdf3" stroke="none"/>
    <path d="M154 154h22M154 154v22" stroke-width="7"/>
  </g>
</svg>
